<?xml version="1.0" encoding="UTF-8"?>
<svg width="128" height="128" version="1.1" viewBox="0 0 128 128" xmlns="http://www.w3.org/2000/svg"><path d="m16 24c-8.86 0-16 7.14-16 16v48c0 8.86 7.14 16 16 16h96c8.86 0 16-7.14 16-16v-48c0-8.86-7.14-16-16-16zm60.2 11.3c1.31-0.0037 2.63 0.309 3.83 1 3.84 2.22 4.93 7.46 2.93 10.9-4 6.93-16 27.7-22.9 23.7-6.93-4 5.08-24.8 9.07-31.7 1.37-2.38 4.21-3.92 7.1-3.93zm-24 41.5c1.29 0.0336 2.59 0.38 3.79 1.07 3.83 2.21 5.14 7.1 2.93 10.9-2.21 3.83-7.1 5.14-10.9 2.93-3.83-2.21-5.14-7.1-2.93-10.9 1.52-2.63 4.31-4.07 7.14-4z" fill="#07f"/></svg>
